<svg xmlns="http://www.w3.org/2000/svg" viewBox="0 0 623.6 139.3"><style type="text/css">  
	.st0{fill:#FFFFFF;}
	.st1{fill:#EC1C24;}
	.st2{fill:#ED3024;}
	.st3{fill:#001722;}
	.st4{fill:#231F20;}
</style><rect class="st0" width="623.6" height="139.3"/><polygon class="st1" points="131 39.9 139.5 39.9 139.5 70.8 160.3 70.8 157.1 78.5 131 78.5 "/><path class="st2" d="M188.5 62.3l-5.1-12.5 -5.1 12.5H188.5zM179.6 39.9h7.8L204 78.5h-8.9l-3.5-8.7h-16.4l-3.5 8.7H163L179.6 39.9z"/><polygon class="st2" points="228.3 47.7 216.2 47.7 216.2 39.9 249 39.9 249 47.7 236.8 47.7 236.8 78.5 228.3 78.5 "/><path class="st2" d="M272.9 58.6c2.1 0 3.7-0.5 4.8-1.5 1.1-1 1.7-2.3 1.7-4v-0.1c0-1.8-0.6-3.2-1.8-4.1 -1.2-0.9-2.8-1.4-4.9-1.4h-8.5v11.1H272.9zM255.8 39.9h17.7c4.9 0 8.6 1.3 11.3 3.9 2.2 2.2 3.3 5.2 3.3 8.8v0.1c0 3.1-0.8 5.7-2.3 7.6 -1.5 2-3.5 3.4-6 4.3l9.4 13.8h-9.9L271 66.2h-0.1 -6.6v12.4h-8.5V39.9z"/><path class="st2" d="M313.5 71.3c1.7 0 3.3-0.3 4.7-0.9 1.4-0.6 2.7-1.5 3.7-2.6 1-1.1 1.8-2.4 2.4-3.8 0.6-1.4 0.8-3 0.8-4.7v-0.1c0-1.7-0.3-3.2-0.8-4.7 -0.6-1.5-1.4-2.8-2.4-3.9 -1.1-1.1-2.3-2-3.7-2.6 -1.4-0.6-3-1-4.7-1 -1.7 0-3.3 0.3-4.7 0.9 -1.4 0.6-2.6 1.5-3.6 2.6 -1 1.1-1.8 2.4-2.4 3.8 -0.6 1.5-0.9 3-0.9 4.7v0.1c0 1.7 0.3 3.2 0.9 4.7 0.6 1.5 1.4 2.8 2.4 3.9 1 1.1 2.3 2 3.7 2.6C310.2 71 311.8 71.3 313.5 71.3M313.4 79.2c-3 0-5.7-0.5-8.2-1.6 -2.5-1-4.7-2.5-6.5-4.3 -1.8-1.8-3.2-3.9-4.3-6.3 -1-2.4-1.5-5-1.5-7.8v-0.1c0-2.8 0.5-5.3 1.5-7.8 1-2.4 2.5-4.5 4.3-6.3 1.8-1.8 4-3.3 6.5-4.3 2.5-1.1 5.3-1.6 8.3-1.6 3 0 5.7 0.5 8.2 1.6 2.5 1 4.7 2.5 6.5 4.2 1.8 1.8 3.2 3.9 4.3 6.3 1 2.4 1.5 5 1.5 7.8v0.1c0 2.8-0.5 5.4-1.6 7.8 -1 2.4-2.5 4.5-4.3 6.4 -1.8 1.8-4 3.3-6.5 4.3C319.1 78.7 316.4 79.2 313.4 79.2"/><path class="st2" d="M357.9 71.1c1.9 0 3.4-0.3 4.4-1 1.1-0.7 1.6-1.7 1.6-3.2v-0.1c0-1.3-0.5-2.3-1.5-3.1 -1-0.8-2.6-1.1-4.8-1.1h-9.8v8.5H357.9zM355.6 55.5c1.9 0 3.4-0.3 4.5-1 1.1-0.6 1.7-1.7 1.7-3.1v-0.1c0-1.3-0.5-2.3-1.4-2.9 -1-0.7-2.3-1-4.1-1h-8.4v8.2H355.6zM339.5 39.9h17.9c4.5 0 7.8 1.1 10.1 3.4 1.8 1.8 2.7 4 2.7 6.6V50c0 1.1-0.1 2.1-0.4 2.9 -0.3 0.8-0.6 1.6-1.1 2.3 -0.5 0.7-1 1.3-1.6 1.8 -0.6 0.5-1.2 1-1.9 1.3 2.2 0.8 4 2 5.3 3.5 1.3 1.5 1.9 3.5 1.9 6v0.1c0 1.8-0.3 3.3-1 4.6 -0.7 1.3-1.6 2.4-2.9 3.3 -1.3 0.9-2.8 1.5-4.6 2 -1.8 0.5-3.8 0.7-5.9 0.7h-18.4V39.9z"/><polygon class="st2" points="377.8 39.9 406.9 39.9 406.9 47.4 386.2 47.4 386.2 55.3 401.3 55.3 401.3 62.8 386.2 62.8 386.2 71 407.2 71 407.2 78.5 377.8 78.5 "/><path class="st3" d="M134.2 101.3V90.7H131v10.7c0 5.3 2.8 8.2 8 8.2 5.2 0 8.1-3 8.1-8.3V90.7h-3.2v10.7c0 3.4-1.8 5.3-4.8 5.3C136 106.7 134.2 104.8 134.2 101.3z"/><polygon class="st3" points="154.5 90.7 154.5 109.3 157.6 109.3 157.6 95.6 168 109.3 170.9 109.3 170.9 90.7 167.7 90.7 167.7 104 157.6 90.7 "/><rect x="179.7" y="90.7" class="st3" width="3.2" height="18.6"/><polygon class="st3" points="193.3 90.7 189.7 90.7 197.3 109.3 200.3 109.3 207.9 90.7 204.4 90.7 198.8 105.7 "/><polygon class="st3" points="217 101.3 226.3 101.3 226.3 98.6 217 98.6 217 93.4 227.6 93.4 227.6 90.7 213.8 90.7 213.8 109.3 227.7 109.3 227.7 106.6 217 106.6 "/><path class="st3" d="M246.2 102.3c1.8-0.6 3.9-2.1 3.9-5.6 0-1.8-0.5-3.2-1.5-4.2 -1.2-1.2-3.1-1.8-5.4-1.8h-8.5v18.6h3.2V103h4.3l4.2 6.3h3.7l-4.6-6.8L246.2 102.3zM238 100.3v-6.8h4.9c2.5 0 4 1.3 4 3.4 0 2.1-1.5 3.4-3.9 3.4H238z"/><path class="st3" d="M264.7 98.6c-3.2-0.8-4.7-1.3-4.7-3.1 0-1.2 1-2.4 3.1-2.4 1.5 0 3.2 0.6 5 1.7l1.6-2.4c-1.9-1.4-4.1-2.1-6.6-2.1 -3.8 0-6.3 2.2-6.3 5.4 0 3.4 1.9 4.5 6.1 5.5 3 0.8 4.4 1.4 4.4 3.1 0 1.2-0.9 2.5-3.4 2.5 -2 0-3.9-0.7-5.8-2.2l-1.9 2.2c2.1 1.7 4.8 2.7 7.6 2.7 4.1 0 6.7-2.1 6.7-5.6C270.5 101.2 268.9 99.7 264.7 98.6z"/><rect x="277.6" y="90.7" class="st3" width="3.2" height="18.6"/><polygon class="st3" points="293.9 109.3 297.1 109.3 297.1 93.6 303.2 93.6 303.2 90.7 287.9 90.7 287.9 93.6 293.9 93.6 "/><polygon class="st3" points="322.5 90.7 317.4 99.1 312.4 90.7 308.6 90.7 315.8 101.9 315.8 109.3 319 109.3 319 101.8 326.1 90.7 "/><path class="st3" d="M106 57.6c-0.2 0.5-0.9 1-0.9 1C106.5 58.5 106 57.6 106 57.6z"/><path class="st3" d="M110.1 58.9c-0.2-1.9-1.2-2.1-2.3-2.5 -1-0.4-2.8-0.9-3.5-1.3 -0.7-0.4-1.4-0.5-2.2-0.7 -0.8-0.1-2.9 0-3.8-0.1 -0.9-0.1-2.4-0.4-2.7-0.2 -0.3 0.2-0.3 1.3-2.6 2 -1.4 0.4-3.2 0.9-4.5 1.3 0-0.7 0.1-2.7 1.8-5.7 2.2-3.6 2.8-4.8 1.8-5.8 -1-1.1-5.3 1.2-5.3 1.2s0.1-0.4 0.1-1c1.3-0.7 6-3.4 7.9-2.3 2.2 1.3-0.5 4.7-0.8 5.1 -0.3 0.3-3.3 4.9-3.9 6.7l1.3-0.3c0 0 2.8-4.6 3.8-5.8 1-1.2 3.3-4.7 1.4-6.2 -1.8-1.5-4.8-0.9-9.8 2.3 0.1-1.7-0.3-4.1-2.6-5C80.5 39 67.7 40 53.2 51.6c0 0-5.6 4-11 9.6 -5.1 5.3-9.9 10.8-8.4 11.7 1.7 0.9 6-4 6.5-4.5 0 0 4.6 0.3 10.3-4.6 0 0 3.1 2 7.5 0.8 0 0-1.7 4.3 3.4 3.9 0 0-0.4 2.1 1.3 1.7 0 0-10 5.9-9.9 6.1 0.2 0.2 5.1-2 7.6-3.2 1.5-0.7 2.3-1.4 3.5-1.6 1.2-0.2 5.3-0.4 11.2-3.6 5.8-3.2 7.7-7.3 8-10.3 0 0-1.5 1.3-1.9 1.3 -0.4 0 0.2-1.6 0.4-2.6 0.1-1 1.3-4.8 0.2-4.3 -1.1 0.5-4.5 3.9-5.8 1.7 -0.9-1.6 1.6-4.6 1.6-4.6s-7.9 4.4-9.3 2.1c-1.3-2 0.9-3.6 0.9-3.6s-8.7 3.4-17.6 9.4c-8.9 6-14.3 13.4-16 13.7 -1.7 0.3 14-18.5 31-25.3 9.2-3.7 15.3-4.1 17.8-3 1.4 0.7 1.3 2.5 1.3 3 0 0-1.3 12.1 0.9 15.2 0 0 1.8-1 3.4-1.7 0 0-0.7 0-0.4-0.7 0.2-0.4 0.8-0.6 1.6-0.8 1.1-0.4 3.1-0.5 4.1-1.3 1-0.8 0.9-1.1 1.5-1.2 0 0 2.1 0.4 3.2 0.3 1.1-0.1 2.1-0.2 2.8 0 0.6 0.2 2.9 1.4 4.3 1.7 1.4 0.3 1.5 0.4 2 1.2 0.5 0.9 0.5 1.9 0.5 1.9 0 0 0 0 0 0 -0.8-0.5-2.9-0.4-2.9-0.4 0.5 0.1 1 0.3 0.3 0.5 -0.8 0.2-3 0.9-3 0.9 0.6-0.8 1.9-1.3 2-1.3 0.1 0-2.7 0-2.7 0 0.6-0.4 0.9-1.5 1-1.9 0.2 0 0.5-0.1 0.7-0.2 0.7-0.3-0.1-0.4-1.7-0.5 -1.6-0.1-2.9-0.3-2.9-0.3l-0.4 0.7c0.2-0.1 0.8-0.3 1.4-0.2 0 0.3 0.2 1 1 1.1 0.3 0 0.6 0 0.8-0.1 -0.2 0.5-0.8 1.4-2.2 1.2 -0.9-0.2-1.4-1.1-1.4-1.1s-1 2-1.9 2.4c-0.9 0.5-5.6 2.6-7.5 5 -1.9 2.4-2.7 3.2-4.2 3.6 -1.5 0.4-1.7 0.4-1.8 0.6 -0.2 0.2-1.8 2.7-6.8 5.4 -1.6 0.9-2.3 0.8-2.6 0.6 -0.4-0.4 0.1-1.2-0.2-1.2 -0.5 0-0.9 0.2-2.1 0.7 -1.6 0.7-2.7 1.3-3.9 1.4 -1.2 0.1-2.3-0.3-2.4-2 0 0-0.1 0-0.9 0.3 -0.8 0.3-5.6 2.5-7.3 2.5 -0.9 0 0.8-2.1 0.8-2.1s-4.5 2.7-5.5 3.1c-1 0.5-3.7 1.7-2.6-1.2 0 0-6.4 4-16.1 7 -3.1 1-3.9 0.5-3.8 1.3 0 0.4 0.4 0.5 0.8 0.5 0.7 0 1.9 0.1 3-0.1 2.1-0.3 6-1.1 8.8-2 4.4-1.4 5.8-3 8.9-2.1 3.9 1.1 5.9-0.5 5.9-0.5s0.6 1.1 3 1c0 0 2.2 1.7 6.2 1 0 0 1.6 0.8 4 0.8 0.1 0.9 0.4 2.4 0.3 3.5 -0.1 2 0 2.5 1.1 1.5 0 0 1.2 3.4 1.2 4.2 0.1 0.8 0.1 1.4 0.5 1.4 0.4 0.1 0.8 0 0.8 0s0.3 0.8 1.4 1.1c0 0 0.1 0.3-1.6 1 -0.8 0.3-1.6 1.1-1.3 1.5 0 0 0.7 0 1.5 0 0 0 1-0.9 2.2-0.3 0.6 0.3 0.7 0.8 0.6 1.1 0 0.1-0.1 0.3-0.2 0.4 -0.1 0.1-0.2 0.3-0.3 0.5 -0.2 0.4-0.4 0.8-0.4 1 0.1 0.3 0.7 1.1-0.9 1.3 0 0 0.1 0.3 0.6 0.3 0.5 0 1.8-0.8 1.8-1.2 0 0 0.6-0.7 1-1.6 0.4-1 0.4-1.1 0.5-1 0.1 0.2 0.6 1.2 0.2 2 -0.3 0.6-0.5 0.8-0.3 1 0 0 0.1 0.1 0.3 0.3 0.1 0.1 0.2 0.3-0.2 0.7 -0.7 0.7 1.2-0.1 1.4-0.8 0 0 0.6-0.7 0.3-3.3 0 0 0-0.3 0.3-0.1 0.3 0.2 0.8 0.8 0.9 1.2 0 0.5-0.2 0.9 0.1 1.1 0.3 0.2 0.3 0.7 0.2 1 -0.1 0.3-0.8 0.4-0.7 0.5 0.2 0.1 1.5 0.1 1.7-1.5 0.2-1.5-0.4-3.3-2.2-4.4 -1.8-1.1-2.4-1.6-2.6-8.2 -0.1-2.3 0.6-4.9 1-6.7 0 0 0 0 0 0 0.6-2.2 1.3-3.4 1.4-3.1 0.1 0.4-0.5 2.1-0.6 2.9 0 0 5.2-2.8 6.8-4.1 1.6-1.3 2.3-2.3 2.4-2.4 0.1-0.1 1.4-1.4 1.9-4.8l2-3.9c0 0 0.8 1.3 1.5 0.5 0.7-0.8 2.1-3.1 2.3-3.1 0 0 0.3 1 0.8 0.7 0.5-0.3 0.7-1.4 1.9-2 1.2-0.6 3.4-1.2 3.4-1.2s4.8-1.2 5-0.8c0.2 0.4 0.2 1.2 0.2 1.2S110.3 60.8 110.1 58.9zM80.3 96c0 0 0.3 0.5 0.8 0.9 0.4 0.2 1.4 0.8 1.9 1.2 0.2 0.2 0.4 0.5 0.3 0.5 -0.1 0.1-0.4 0-0.9-0.5 -0.5-0.5-0.8-0.2-0.9 0.1 0 0.3 0.1 1.2 0 1.7 -0.1 0.6-0.4 0.7-0.4 0 0-0.6-0.3-2.1-1-2.1 -0.5 0-0.7 0.5-0.9 0.8C79.2 99 78.9 99.3 79 99c0 0 0.1-0.7-0.3-1.4 -0.3-0.7-0.4-0.8-0.8-0.9 -0.4-0.1-0.4-0.4 0.2-0.7C78.8 95.8 79.1 95.6 80.3 96z"/><path class="st3" d="M52.3 83c-1.3-0.5-3.2 0-5.1 0.8 -1.9 0.9-10.9 3.9-16.1 3.6 0 0 0.8 1.2 3.9 1.7 0 0-0.3 1.8 2.9 1.1 3.1-0.7 14.3-5.7 16.6-7C54.5 83.2 53.6 83.5 52.3 83z"/><path class="st3" d="M60.4 83.5c-0.1 0-1.7 0.1-2.8-0.9l-11.1 5.7c0 0-5.1 2.3-4.1 2.9 0 0 1.6 0.9 5.1-0.5C51 89.4 61 83.9 61 83.9S60.4 83.5 60.4 83.5z"/><path class="st3" d="M65.1 84.5c0 0-1.4 0.1-2.5-0.4 0 0-6 3.8-7.1 4.4 -1.1 0.6-2.9 1.3-0.9 1.7 2 0.3 4.1 0.1 7.4-2.8C64.9 84.7 65.1 84.5 65.1 84.5z"/><path class="st3" d="M84.1 81.6c-1.2 0.6-2.6 1.3-2.6 1.3S80.9 85 81 88.8c0.2 5 0.7 6.4 2.3 7.3 2.3 1.3 2.7 3.4 2.7 4 0 0.6-0.1 0.8 0.1 1 0.2 0.2 0.2 0.4-0.1 0.8 -0.2 0.4-0.9 0.5-0.7 0.6 0.3 0 1.1 0.1 1.5-0.8 0.4-0.9 0.8-1.4 0.1-3.2 0 0 0.9-0.1 1.2 1.5 0.2 1-0.1 1.4 0.7 1.7 0 0 0.1 0.4-0.3 0.9 -0.4 0.4 0.1 0.3 0.5 0.1 0.5-0.3 1-1 1-1.9 -0.1-0.8-0.6-1.9-0.9-2.5 0 0 0.6 0.1 0.9 0.7 0.3 0.6 0.3 0.9 1.1 0.9 0 0 0.4 0.3 0.4 0.8 0 0.6-0.7 1-0.5 0.9 0.2 0 1.8-0.6 0.6-2.6 0 0-0.2-0.9-1.1-1.4 -0.9-0.5-2-1.8-4.1-2.2 0 0-1-1-1.1-1.6 0 0 0.1-0.3 0.2-0.5 0.1-0.2-1.4-7.4 2.1-13.8C87.6 79.7 85.3 81 84.1 81.6zM86.2 96.1c1.2 0 3.8 1.7 3.8 2 0 0.2-1-0.2-1.3-0.4 -0.3-0.1-0.7-0.1-0.4 0.3 0.3 0.4 0.7 1.5 0.7 1.7 0 0.2-0.2 0-0.2 0 -0.3-1-1.2-1.8-1.7-2 -0.5-0.2-0.6-0.1-0.7 0.3 0 0.3 0.1 1-0.2 0.1 -0.4-1-1.3-1.8-1.6-1.9 -0.3-0.2-0.1-0.4-0.1-0.4 0.1-0.1 0.3-0.2 0.6-0.1C85.6 95.5 86.2 96.1 86.2 96.1z"/><path class="st3" d="M62.3 100.9l2.5 1c-0.2 1.5 1.1 2.4 1.1 2.4 -0.1 0.5-0.6 1-0.9 1.2 -0.2 0.1-0.3 0.1-0.2 0.2 0 0 0.1 0 0.2-0.1 2.4-0.9 2.6-3.1 2.5-4.7 -0.1-1.5-1.1-2.3-1.1-2.3 0 0 4 0.6 5.5 0.3 1.5-0.3 0-0.4 0-0.4 -3.1 0-6.5-1.2-8.2-0.6 -2.3 0.8-2.4 3-2.5 3.4 -0.3 2.1 0.9 3.3 1.4 3.7 0.1 0.1 0.2 0.2 0.3 0.2 0 0-0.1-0.2-0.1-0.3C61.6 102.6 62.3 100.9 62.3 100.9z"/><path class="st3" d="M104.4 104c-2.4 0.2-5-0.3-5-0.3 0 0-0.4 0.2-0.4 0.2 1.8 0.8 3.9 0.7 4.4 0.7 0.5 0.1-0.1 0.3-0.1 0.3 -2.5 2.1-6.8 1.5-13 1.5 -6.2 0-12.7 1.8-14.9 2.1 -0.9 0.1-1.6-0.6-2.2-0.9 -0.8-0.4-1.4-0.6-1.4-0.6 7.3-1.5 11.5-2 19.3-2.5 4.7-0.3 8.7 0.3 9.2-3.2 0.2-1.1-0.1-2-0.5-2.7 -0.7-1.3-2-1.9-2.5-2.1 -0.1-0.1-0.5 0-0.6 0 -2.5 0.8-5 1-5.5 1.1 -0.5 0.1-0.2 0.2-0.2 0.2 2.6 0.2 4.8-0.4 5.4-0.7 0.2-0.1 0.3-0.1 0.5 0 0.5 0.2 1.7 0.7 2.3 2.3 1 2.8-1.2 3.4-3 3.5 -1.9 0.1-9.7 0.9-12.7 1.1 -3 0.2-10.9 1.2-13.7 1.7 -2.2 0.3-5 0.5-5 0.5 -0.8 0 0.5 0.4 3.5 0.8 3 0.5 3.8 1.6 5 2.4 0.5 0.3 1.6 0.4 2.6 0.2 1.2-0.1 3.9-0.9 5.5-1.2 3.3-0.6 8.9-1.2 16.7-0.9 4.3 0.1 5.8-1.1 7.3-2.9C106 103.8 104.4 104 104.4 104z"/><rect x="448.3" y="13.1" class="st4" width="1.7" height="113.2"/><path class="st4" d="M498.3 107.3l-7.2-12.8h4l4.9 9.2 4.9-9.2h3.9l-7.1 12.7v8.5h-3.5V107.3z"/><path class="st4" d="M511.3 94.5h13.4v3.2h-9.9v5.8h8.8v3.2h-8.8v5.9h10v3.2h-13.5V94.5z"/><path class="st4" d="M535.1 94.4h3.4l7.8 21.4h-3.7l-1.8-5h-8.3l-1.8 5h-3.5L535.1 94.4zM539.8 107.7l-3-8.5 -3 8.5H539.8z"/><path class="st4" d="M548.6 94.5h7.7c2.4 0 4.4 0.7 5.7 2 1.1 1.1 1.8 2.7 1.8 4.7v0.1c0 3.3-1.8 5.3-4.4 6.2l5 8.2h-4.1l-4.5-7.5c-0.1 0-0.2 0-0.2 0h-3.4v7.5h-3.5V94.5zM555.9 105.1c2.7 0 4.2-1.5 4.2-3.7v-0.1c0-2.4-1.5-3.6-4.2-3.6h-3.9v7.4H555.9z"/><path class="st4" d="M565.7 113l2.1-2.6c1.6 1.4 3.3 2.5 5.6 2.5 2 0 3.3-1.1 3.3-2.7v0c0-1.3-0.7-2.2-4.1-3.5 -4-1.5-6.1-3-6.1-6.4v-0.1c0-3.5 2.8-5.9 6.7-5.9 2.5 0 4.7 0.8 6.7 2.5l-2 2.7c-1.5-1.2-3.1-2-4.8-2 -1.9 0-3.1 1.1-3.1 2.5v0c0 1.5 0.8 2.3 4.4 3.7 3.9 1.5 5.8 3.2 5.8 6.2v0.1c0 3.7-2.9 6.1-6.9 6.1C570.7 116.1 568 115.1 565.7 113z"/><path class="st1" d="M558.4 88.6c14.7-0.1 24.2-13.2 24.1-32.5l0-1c-0.1-19.4-9.6-32.3-24.1-32.2 -14.7 0.1-24.2 13.2-24.1 32.5l0 1C534.3 75.7 543.6 88.6 558.4 88.6M558.5 78.9c-8 0-13.5-8.6-13.5-22.9l0-0.7c0-14.2 5.3-22.8 13.2-22.8 7.9 0 13.4 8.7 13.5 22.9l0 0.7C571.7 70.3 566.4 78.9 558.5 78.9"/><path class="st1" d="M511.4 47c-3.6 0-5.8 0.6-8.4 1.5l0.5-15.2h19.4v0h3.9l4-9.7h-7.9v0h-28.3l-1.2 31.1 6.2 4.1c2.7-1.3 5.8-2.4 9.6-2.4 6.8 0 11.8 4 11.8 10.8v0.2c0 7-4.6 11.4-11.4 11.4 -5.2 0-9.7-2.6-13.9-6.3l-4 9.6c4.9 4 11 6.5 17.9 6.5 12.8 0 21.9-8.4 21.9-21.6v-0.2C531.4 53.2 522.3 47 511.4 47"/></svg>